<svg width="38" height="38" viewBox="0 0 38 38" fill="none" xmlns="http://www.w3.org/2000/svg">
<g clip-path="url(#clip0_11_74)" filter="url(#filter0_d_11_74)">
<path d="M22.5363 7.8775C21.6138 7.835 21.3363 7.8275 19 7.8275C16.6637 7.8275 16.3875 7.83625 15.465 7.8775C13.0912 7.98625 11.9862 9.11 11.8775 11.465C11.8362 12.3875 11.8263 12.6637 11.8263 15C11.8263 17.3363 11.8362 17.6125 11.8775 18.5363C11.9862 20.885 13.0863 22.015 15.465 22.1237C16.3862 22.165 16.6637 22.175 19 22.175C21.3375 22.175 21.6138 22.1662 22.5363 22.1237C24.91 22.0162 26.0138 20.8888 26.1237 18.5363C26.165 17.6138 26.1737 17.3363 26.1737 15C26.1737 12.6637 26.165 12.3875 26.1237 11.465C26.0138 9.11125 24.9075 7.98625 22.5363 7.8775ZM19 19.4937C16.5188 19.4937 14.5062 17.4825 14.5062 15C14.5062 12.5188 16.5188 10.5075 19 10.5075C21.4813 10.5075 23.4937 12.5188 23.4937 15C23.4937 17.4813 21.4813 19.4937 19 19.4937ZM23.6713 11.38C23.0913 11.38 22.6213 10.91 22.6213 10.33C22.6213 9.75 23.0913 9.28 23.6713 9.28C24.2513 9.28 24.7212 9.75 24.7212 10.33C24.7212 10.9087 24.2513 11.38 23.6713 11.38ZM21.9163 15C21.9163 16.6112 20.61 17.9163 19 17.9163C17.39 17.9163 16.0837 16.6112 16.0837 15C16.0837 13.3888 17.39 12.0837 19 12.0837C20.61 12.0837 21.9163 13.3888 21.9163 15ZM19 0C10.7163 0 4 6.71625 4 15C4 23.2838 10.7163 30 19 30C27.2838 30 34 23.2838 34 15C34 6.71625 27.2838 0 19 0ZM27.6975 18.6075C27.5538 21.7887 25.7825 23.5513 22.6087 23.6975C21.675 23.74 21.3762 23.75 19 23.75C16.6237 23.75 16.3263 23.74 15.3925 23.6975C12.2125 23.5513 10.4487 21.7862 10.3025 18.6075C10.26 17.675 10.25 17.3762 10.25 15C10.25 12.6237 10.26 12.3263 10.3025 11.3925C10.4487 8.2125 12.2138 6.44875 15.3925 6.30375C16.3263 6.26 16.6237 6.25 19 6.25C21.3762 6.25 21.675 6.26 22.6087 6.30375C25.79 6.45 27.555 8.21875 27.6975 11.3925C27.74 12.3263 27.75 12.6237 27.75 15C27.75 17.3762 27.74 17.675 27.6975 18.6075Z" fill="white"/>
</g>
<defs>
<filter id="filter0_d_11_74" x="0" y="0" width="38" height="38" filterUnits="userSpaceOnUse" color-interpolation-filters="sRGB">
<feFlood flood-opacity="0" result="BackgroundImageFix"/>
<feColorMatrix in="SourceAlpha" type="matrix" values="0 0 0 0 0 0 0 0 0 0 0 0 0 0 0 0 0 0 127 0" result="hardAlpha"/>
<feOffset dy="4"/>
<feGaussianBlur stdDeviation="2"/>
<feComposite in2="hardAlpha" operator="out"/>
<feColorMatrix type="matrix" values="0 0 0 0 0 0 0 0 0 0 0 0 0 0 0 0 0 0 0.25 0"/>
<feBlend mode="normal" in2="BackgroundImageFix" result="effect1_dropShadow_11_74"/>
<feBlend mode="normal" in="SourceGraphic" in2="effect1_dropShadow_11_74" result="shape"/>
</filter>
<clipPath id="clip0_11_74">
<rect width="30" height="30" fill="white" transform="translate(4)"/>
</clipPath>
</defs>
</svg>
